<?xml version="1.0" encoding="UTF-8"?>
<svg id="Layer_2" data-name="Layer 2" xmlns="http://www.w3.org/2000/svg" viewBox="0 0 859 859">
  <defs>
    <style>
      .cls-1 {
        fill: #fff;
      }

      .cls-2 {
        fill: none;
      }
    </style>
  </defs>
  <g id="_Слой_1" data-name="Слой 1">
    <rect class="cls-1" x="0" y="0" width="859" height="859" rx="429.5" ry="429.5"/>
    <g>
      <path class="cls-2" d="m166.43,363.72h-7.62c-8,0-16.1-.07-24.15.08-6.17.12-12.31.78-18.36,2-17.42,3.49-26,15.23-24.52,32.91.93,10.72,6.61,18.12,16.33,22.47,8.26,3.7,17.08,4.6,26,4.66,14.55.1,29.1,0,43.66.08h3.37v-62.18h-11.21c-1.16-.02-2.33-.01-3.5-.02Z"/>
      <path class="cls-2" d="m503.31,439.75c-5.21-2.99-11.08-4.66-17.08-4.87-9.36-.29-18.72-.18-28.08-.18l-21.06-.27h-10.15v3.24h0c.11,18.43.11,36.86,0,55.29v3.41h3.35c15.24,0,30.48,0,45.72-.11,4.48-.05,8.95-.44,13.37-1.17,20.63-3.37,31.13-19.5,26-39.74-1.63-6.68-6.02-12.35-12.07-15.6Z"/>
      <path d="m784.37,481.81l-.58,4.53c0,.18-.07.36-.11.56-1,5.85-4.76,9.16-9.59,9.56s-7.3-1.3-9.76-7.79c-1.83-4.83-3.28-9.81-4.66-14.79-3.36-12.19-6.64-24.41-12.71-35.62-5.66-10.46-14-17.44-26.08-19.38-2.63-.39-3.22-.32-3.43-.24l28.68-28.68c8.3-8.29,16.61-16.57,24.93-24.84.33-.39.72-.73,1.16-1h19.88v-17h-64.8v17h17.27l-61.33,61.33v-61.34h22.63v-17h-64.81v17h22.07v132.2h-22v17.13h64.67v-17.13h-22.56v-43.46l19-19c2.35-.35,4.74-.39,7.11-.12,10.74,2,19.44,6.79,23.72,17.31,2.73,6.71,4.78,13.69,7,20.59,3,9.07,5.59,18.25,8.81,27.22,1.76,4.93,4.96,9.22,9.19,12.3,6,4.42,12.76,4.52,19.73,3.41,12.2-1.93,22.36-14.36,23.55-26.71l-16.98-6.04Z"/>
      <path d="m596.1,507.55c-.76-.3-1.52-.62-2.3-.94v-154.2c1.16-.45,2.23-.85,3.28-1.28,14.44-5.8,22.74-21.02,19.78-36.3-2.69-14.52-16.13-26.08-30.97-26.52-16.41-.46-30.23,11-33.23,27.61-2.79,15.73,6.52,31.09,21.76,35.89,1,.24,1.85.45,2.65.63v154.16c-.41.13-1.16.2-2.5.59-15.12,4.37-24.51,20.5-22.11,35.57,2.51,15.73,15.8,27.64,31.18,27.93,16,.3,30.2-10.77,33.2-25.95,3.12-15.8-5.66-31.54-20.74-37.19Z"/>
      <path d="m509.92,423.51c-8.33-3.7-17.38-5.51-26.5-5.29-17.63,0-35.27-.16-52.91-.07h-3.57v-3.54c0-15.28.11-30.57,0-45.86v-4.68h22.91v-17h-64.71v17h22.44v132.31h-22.44v16.37h64.69c8.72,0,17.44-.07,26.16-.17,8.05-.06,16.08-1.01,23.92-2.84,23.94-5.73,36.86-23.39,35.61-47.84-.86-17.83-8.72-31.21-25.6-38.39Zm-20.54,71.59c-4.42.74-8.89,1.15-13.37,1.21-15.24.14-30.48.11-45.72.11h-3.35v-3.41c.1-18.43.1-36.86,0-55.29h0v-3.24h10.15l21.06.27c9.36,0,18.72-.11,28.08.18,6,.21,11.87,1.88,17.08,4.87,6.05,3.26,10.44,8.93,12.06,15.61,5.14,20.19-5.36,36.32-25.99,39.69Z"/>
      <path d="m340.24,424.82c.42-.36,1.2-1.06,2-1.71,18.4-14.88,21.17-42.29,5.81-59.36-7.92-8.79-18.31-13.18-29.64-15.55-15.85-3.31-31.55-1.83-47.06,2-8.22,2-15.88,5.55-21.46,12.24-9.85,11.8-7.88,24.88-3.84,38.6l17.42-4.46c-.33-1.33-.55-2.37-.83-3.41-3.39-12.59,1.42-22.45,13.73-26.53,14.67-4.97,30.59-4.84,45.18.37,10.36,3.6,17.78,10.67,18.46,22.3.71,12.23-4.54,21.61-15.57,27.36-4.88,2.54-10.22,3.23-15.65,3.24h-33.13v16.62h4.44c8.47-.08,16.94-.28,25.41-.23,9.32.05,18.42,1.21,27,5.25,15.9,7.46,21.34,31.2,5.52,44.16-6.04,4.92-13.07,8.47-20.61,10.42-11.77,3.15-23.56,2.26-35.22-.34-10.32-2.3-19.47-6.66-25.73-15.28l-3.78-5.89c-5.52,2.6-9.72,4.5-15.08,6.91,4.71,11.24,11.72,19.82,22.22,25.35,10.66,5.6,22.22,7.33,34,8,16.76.94,33-.8,48.07-9,31.7-17.39,28-55,11.39-71-3.78-3.83-8.51-6.66-13.05-10.06Z"/>
      <path d="m200.57,382.55c0-6.1.28-12.68.44-18.79h22.08v-16.64h-51.43c-12.65,0-25.29,0-37.94.19-8.66.08-17.28,1.05-25.74,2.89-17.46,3.88-32.8,14.88-35.08,38.53-1.2,12.46.69,24.3,8.67,34.48,7.16,9.15,17,13.81,28.05,16.41,3.8.9,7.68,1.51,10.86,2.13-6.49,13.34-12.86,26.59-19.41,39.76-1.73,3.69-3.85,7.18-6.32,10.43-5.68,7.13-14.9,5.5-18.2-3-.67-1.72-1.11-3.53-1.72-5.51l-17.17,4.03c.48,2.94,1.29,5.82,2.4,8.58.46,1.14,1,2.19,1.45,3.18.84,1.85,1.9,3.6,3.15,5.21l.19.27h0c10.44,13,31.76,13.84,41.6,2.77,3.22-3.63,6.47-7.43,8.71-11.68,4.64-8.79,8.63-17.92,12.84-26.93,4-8.48,7.78-17,14.23-24.06.88-1.02,2-1.8,3.27-2.26h35.62v53.5h-22.78v13.91h0v3h64.77v-16.9h-22.57v-59.27c0-18.08,0-36.16.03-54.23Zm-19.42-9.19v52.57h-3.37c-14.56-.11-29.11,0-43.66-.08-8.91-.06-17.73-1-26-4.66-9.72-4.35-15.4-11.75-16.33-22.47-1.51-17.68,7.11-29.41,24.53-32.91,6.05-1.22,12.19-1.88,18.36-2,8-.15,16.1-.12,24.15-.08h22.34l-.02,9.63Z"/>
    </g>
  </g>
</svg>