<svg width="249" height="95" viewBox="0 0 249 95" fill="none" xmlns="http://www.w3.org/2000/svg">
<g clip-path="url(#clip0_601_135)">
<path d="M243.021 64.4578L242.827 65.9647C242.827 66.0246 242.804 66.0844 242.791 66.151C242.457 68.0969 241.201 69.1979 239.588 69.3308C237.975 69.4638 237.15 68.8982 236.329 66.7393C235.718 65.1326 235.234 63.476 234.773 61.8194C233.651 57.7644 232.556 53.6994 230.529 49.9704C228.64 46.4908 225.855 44.1687 221.821 43.5231C220.942 43.3933 220.745 43.4166 220.675 43.4432L230.253 33.9037C233.025 31.1451 235.801 28.3911 238.579 25.6414C238.689 25.5104 238.82 25.3981 238.967 25.3088L245.605 25.3092L245.606 19.6543L223.966 19.6528L223.966 25.3077L229.733 25.3081L209.251 45.7077L209.252 25.3034L216.809 25.3039L216.81 19.649L195.167 19.6475L195.167 25.3024L202.537 25.3029L202.534 69.2783L195.187 69.2778L195.186 74.976L216.783 74.9775L216.783 69.2793L209.249 69.2788L209.25 54.8221L215.596 48.5024C216.382 48.3852 217.18 48.3718 217.97 48.4626C221.556 49.1281 224.462 50.7217 225.891 54.2212C226.802 56.4533 227.487 58.7752 228.228 61.0705C229.229 64.0876 230.094 67.1414 231.169 70.1252C231.755 71.7658 232.825 73.1919 234.238 74.217C236.241 75.6874 238.499 75.7208 240.826 75.3517C244.901 74.71 248.294 70.5755 248.691 66.4674L243.021 64.4578Z" fill="#121212"/>
<path d="M180.149 73.0157C179.895 72.9159 179.642 72.8094 179.381 72.703L179.385 21.4094C179.772 21.2597 180.13 21.1267 180.48 20.9837C182.818 20.0488 184.756 18.3323 185.962 16.129C187.167 13.9256 187.565 11.3729 187.086 8.9092C186.188 4.07915 181.701 0.233485 176.745 0.086776C171.265 -0.0666224 166.649 3.74515 165.647 9.27028C165.196 11.7998 165.685 14.4064 167.022 16.6034C168.359 18.8004 170.453 20.4376 172.913 21.2094C173.247 21.2892 173.531 21.3591 173.798 21.419L173.794 72.6993C173.657 72.7425 173.407 72.7658 172.959 72.8955C167.91 74.3488 164.774 79.7141 165.575 84.7271C166.413 89.9596 170.851 93.9217 175.987 94.0185C181.33 94.1187 186.072 90.4366 187.074 85.3872C187.579 82.8421 187.16 80.2013 185.891 77.9354C184.623 75.6696 182.588 73.9261 180.149 73.0157Z" fill="#121212"/>
<path d="M151.372 45.0583C148.589 43.8276 145.566 43.2265 142.522 43.298C136.635 43.2976 130.744 43.244 124.853 43.2735L123.661 43.2734L123.661 42.1325C123.661 42.1325 123.661 42.1092 123.661 42.0959C123.662 37.0131 123.699 31.927 123.662 26.8409L123.663 25.2841L131.313 25.2846L131.314 19.6297L109.704 19.6282L109.704 25.2831L117.197 25.2836L117.194 69.2957L109.701 69.2951L109.7 74.7405L117.194 74.741L123.659 74.7415C125.885 74.7416 128.112 74.7418 130.338 74.742L131.303 74.742C134.215 74.7422 137.127 74.7191 140.039 74.6861C142.728 74.6669 145.408 74.3503 148.027 73.7419C156.022 71.8364 160.337 65.9623 159.92 57.8291C159.633 51.8981 157.009 47.4471 151.372 45.0583ZM144.511 68.8718C143.035 69.1186 141.542 69.2531 140.046 69.274C134.957 69.3202 129.867 69.3099 124.778 69.3095L123.659 69.3094L123.659 68.2383C123.659 68.2184 123.659 68.1984 123.659 68.1751C123.693 62.0434 123.694 55.9128 123.661 49.7833L123.661 48.7055L127.05 48.7057L134.083 48.796C137.209 48.7963 140.335 48.7599 143.46 48.8566C145.465 48.9274 147.423 49.4836 149.164 50.4769C150.163 51.0128 151.038 51.752 151.732 52.6467C152.426 53.5413 152.923 54.5713 153.191 55.6698C154.907 62.386 151.4 67.7513 144.511 68.8718Z" fill="#121212"/>
<path d="M94.7082 45.4901C94.8485 45.3704 95.109 45.1376 95.3762 44.9214C101.521 39.9721 102.447 30.8544 97.3178 25.1758C94.6731 22.2517 91.2036 20.7911 87.4201 20.0025C82.1271 18.9011 76.8842 19.393 71.7047 20.6667C68.9596 21.3318 66.4015 22.5125 64.5379 24.7378C61.2483 28.6627 61.9059 33.0137 63.2547 37.5777L69.0721 36.0945C68.9619 35.6521 68.8885 35.3061 68.795 34.9602C67.6632 30.7721 69.2697 27.4924 73.3807 26.1355C78.2805 24.4841 83.5964 24.5278 88.4682 26.2596C91.9278 27.4574 94.4055 29.8093 94.6323 33.678C94.8691 37.7462 93.1157 40.8663 89.4321 42.7787C87.8024 43.6235 86.0192 43.8529 84.2059 43.8561L82.2322 43.856L73.1423 43.8554L73.1419 49.3839L73.9567 49.384C74.1337 49.384 74.3541 49.384 74.6246 49.384C77.4531 49.3576 80.2816 49.2913 83.1101 49.3081C86.2225 49.3249 89.2613 49.711 92.1265 51.0551C97.436 53.537 99.2521 61.4341 93.9688 65.7447C91.9519 67.3803 89.6041 68.5625 87.086 69.2104C83.1554 70.258 79.2182 69.9616 75.3245 69.0965C71.8783 68.3312 68.8228 66.8806 66.7325 64.0131L65.4704 62.0537C63.6269 62.9185 62.2243 63.5504 60.4343 64.352C62.0069 68.091 64.3477 70.9452 67.854 72.785C71.4137 74.648 75.274 75.2238 79.2078 75.4469C84.8047 75.76 90.228 75.1816 95.2607 72.4542C105.847 66.6703 104.612 54.1595 99.066 48.8368C97.8038 47.5627 96.2243 46.6212 94.7082 45.4901Z" fill="#121212"/>
<path d="M48.0677 31.4261C48.0678 29.397 48.1615 27.2082 48.2151 25.1757L52.2524 25.176C52.9203 25.1761 53.5882 25.1761 54.2761 25.1762L55.5885 25.1762L55.5889 19.6411L38.4142 19.6399C34.1899 19.6396 29.9688 19.6393 25.7444 19.7022C22.8537 19.7286 19.9734 20.0505 17.1487 20.6629C11.3179 21.9532 6.19499 25.6119 5.43305 33.4788C5.03202 37.6236 5.6629 41.5621 8.32752 44.9486C10.7183 47.9924 14.0042 49.5428 17.6942 50.4079C18.9632 50.7074 20.2589 50.9104 21.3208 51.1167C19.1532 55.554 17.0257 59.9614 14.838 64.3422C14.2586 65.5692 13.5511 66.732 12.7273 67.8115C10.8303 70.1831 7.7514 69.6407 6.64959 66.8131C6.42589 66.241 6.279 65.6389 6.07534 64.9802L0.341443 66.3204C0.502478 67.2982 0.771187 68.2553 1.14271 69.1745C1.29629 69.5537 1.4766 69.903 1.62685 70.2323C1.90888 70.8487 2.26185 71.4303 2.67865 71.9655L2.74209 72.0553C6.22815 76.3799 13.3478 76.6598 16.6341 72.9777C17.7094 71.7703 18.7948 70.5063 19.543 69.0926C21.0927 66.1688 22.4253 63.1319 23.8314 60.1348C25.1674 57.3141 26.4299 54.4801 28.584 52.1318C28.8771 51.7919 29.2533 51.533 29.676 51.3801L41.5711 51.3809L41.5707 57.5015C41.5705 60.1827 41.5703 62.8627 41.5701 65.5415L41.5699 69.1773L33.9626 69.1768L33.9623 73.8039L33.9622 74.8018L55.5917 74.8033L55.5921 69.1816L48.055 69.1811L48.0551 68.0268C48.0551 67.937 48.0551 67.8439 48.0551 67.7408C48.0555 61.7687 48.056 55.7989 48.0564 49.8312L48.0564 49.4653C48.0568 43.4511 48.0606 37.4381 48.0677 31.4261ZM41.5827 28.3686C41.5826 30.3978 41.5825 32.4269 41.5823 34.4593L41.5822 36.5583C41.582 38.6207 41.5819 40.6831 41.5817 42.7455L41.5815 45.8557L40.4561 45.8556C35.5939 45.8187 30.735 45.8549 25.8762 45.828C22.9007 45.8078 19.9554 45.4949 17.1938 44.2773C13.9479 42.83 12.0513 40.3684 11.741 36.8024C11.2372 30.9212 14.116 27.0195 19.9334 25.8557C21.953 25.4516 24.005 25.2291 26.0646 25.1908C28.7362 25.1411 31.4411 25.1513 34.1294 25.1648L36.674 25.1649C37.0647 25.165 37.4554 25.165 37.8461 25.165L41.5896 25.1653L41.5827 28.3686Z" fill="#121212"/>
</g>
<defs>
<clipPath id="clip0_601_135">
<rect width="248.367" height="94.3967" fill="white" transform="translate(0.338379 0.0249023)"/>
</clipPath>
</defs>
</svg>
